<?xml version="1.0" encoding="UTF-8" standalone="no"?>
<!-- Created with Inkscape (http://www.inkscape.org/) -->

<svg
   width="118.49626mm"
   height="138.24628mm"
   viewBox="0 0 118.49626 138.24628"
   version="1.1"
   id="svg1"
   xml:space="preserve"
   xmlns:inkscape="http://www.inkscape.org/namespaces/inkscape"
   xmlns:sodipodi="http://sodipodi.sourceforge.net/DTD/sodipodi-0.dtd"
   xmlns="http://www.w3.org/2000/svg"
   xmlns:svg="http://www.w3.org/2000/svg"><sodipodi:namedview
     id="namedview1"
     pagecolor="#ffffff"
     bordercolor="#000000"
     borderopacity="0.25"
     inkscape:showpageshadow="2"
     inkscape:pageopacity="0.0"
     inkscape:pagecheckerboard="0"
     inkscape:deskcolor="#d1d1d1"
     inkscape:document-units="mm" /><defs
     id="defs1"><style
       type="text/css"
       id="style1">
   <![CDATA[
    .fil1 {fill:#26934B}
    .fil2 {fill:#FEFEFE;fill-rule:nonzero}
    .fil0 {fill:white;fill-rule:nonzero}
   ]]>
  </style></defs><g
     inkscape:label="Layer 1"
     inkscape:groupmode="layer"
     id="layer1"
     transform="translate(-45.808599,-79.376859)"><g
       style="clip-rule:evenodd;fill-rule:evenodd;image-rendering:optimizeQuality;shape-rendering:geometricPrecision;text-rendering:geometricPrecision"
       id="g1"
       transform="matrix(3.8525316e-4,0,0,3.8525316e-4,45.80856,79.376855)"><g
         id="Слой_x0020_1"
         inkscape:label="Слой 1"
         inkscape:groupmode="layer">
  <metadata
   id="CorelCorpID_0Corel-Layer" />
  <path
   class="fil0"
   d="m 6.18,179421.73 c -353.34,-24840.26 14712.21,-50696 39988.14,-75585.01 C 67381.87,76867.99 106918.6,50842.39 151711.19,28460.63 l 2079.17,-1038.95 2078.88,1038.95 c 44792.6,22381.76 84329.61,48407.64 111717.16,75376.09 25276.35,24889.29 40341.48,50744.75 39987.86,75585.01 353.62,24840.68 -14711.79,50696.42 -39987.86,75585.43 -27387.55,26968.73 -66924.28,52994.33 -111717.16,75376.09 l -2078.88,1038.67 -2079.17,-1038.67 C 106918.59,308001.49 67381.86,281975.61 39994.32,255007.16 14718.11,230117.87 -347.16,204262.41 6.18,179421.73 Z"
   id="path1" />
  <path
   class="fil1"
   d="m 917,190929.43 -1.69,-5.48 C 7893.35,248104.29 60832.61,322356.44 153790.91,358845.3 246749.5,322357 299688.76,248104.29 306666.37,190923.95 l -1.83,5.48 c -3604.64,21250.64 -17682.81,43010.58 -39078.16,64078.3 -27386.7,26968.73 -66924.28,52994.33 -111716.59,75375.53 l -2079.17,1039.51 -2079.17,-1039.51 C 106918.85,308002.06 67381.84,281976.74 39994.58,255007.73 18599.51,233940.01 4521.35,212180.08 916.42,190929.43 h 0.56 z M 46502.82,110301.97 C 22937.97,133506.6 8891.55,157185.82 9227.61,179369.06 v 106.92 c -336.34,22183.24 13710.35,45863.3 37275.21,69067.23 26259.94,25858.55 64177.49,50921.63 107288.38,72654.03 43111.17,-21732.4 81027.87,-46795.47 107288.09,-72654.03 23564.85,-23203.93 37611.55,-46883.99 37275.21,-69067.23 v -106.92 c 336.48,-22183.24 -13710.35,-45862.18 -37275.21,-69067.09 C 234819.35,84443.84 196902.08,59379.64 153791.2,37648.36 110680.03,59379.63 72763.05,84443.83 46502.82,110301.97 Z m 208511.64,69120.61 c 466.16,-30800.7 -48699.16,-65753.82 -101223.27,-91998.45 -52524.38,26244.63 -101689.42,61197.76 -101223.27,91998.45 -466.16,30801.26 48699.16,65753.68 101223.27,91998.17 52524.1,-26244.49 101689.42,-61197.05 101223.27,-91998.17 z M 108366.94,227432.9 v 5893.29 c 0,977.98 52.97,1588.7 159.18,1831.33 110.57,242.77 318.78,457.87 632.5,639.11 314.14,185.87 738.43,276.63 1269.22,276.63 h 632.78 v 485.97 h -9992.33 v -485.97 h 632.5 c 555.23,0 1003.83,-100.59 1342.7,-295.6 245.3,-133.89 433.42,-357.84 564.22,-677.32 101.3,-223.95 154.54,-815.71 154.54,-1774.15 v -12502.67 c 0,-977.41 -53.25,-1587.44 -154.54,-1830.77 -106.35,-243.48 -314,-457.87 -627.87,-638.82 -312.88,-186.29 -738.86,-276.77 -1279.05,-276.77 h -632.5 v -486.11 h 9992.33 v 486.11 h -632.78 c -550.31,0 -994.13,99.89 -1331.88,296.3 -240.95,133.33 -434.55,357.13 -574.76,676.48 -101.3,224.65 -154.26,815.14 -154.26,1773.59 v 5378.66 h 6805.65 v -5378.66 c 0,-977.41 -52.83,-1587.44 -153.98,-1830.77 -106.07,-243.48 -314.28,-457.87 -636.86,-638.82 -319.06,-186.29 -743.91,-276.77 -1279.19,-276.77 h -623.37 v -486.11 h 9992.33 v 486.11 h -623.23 c -559.59,0 -1008.74,99.89 -1336.8,296.3 -246.14,133.33 -439.18,357.13 -579.4,676.48 -101.3,224.65 -154.68,815.14 -154.68,1773.59 v 12502.67 c 0,977.98 53.39,1588.7 154.68,1831.33 106.35,242.77 314,457.87 637.7,639.11 318.22,185.87 743.35,276.63 1278.49,276.63 h 623.23 v 485.97 h -9992.33 v -485.97 h 623.37 c 559.73,0 1008.46,-100.59 1336.38,-295.6 245.86,-133.89 439.46,-357.84 579.68,-677.32 101.16,-223.95 153.98,-815.71 153.98,-1774.15 v -5893.29 h -6805.65 z m 27657.86,3718.73 h -6713.49 l -835.09,1850.86 c -265.95,619.3 -396.33,1134.49 -396.33,1540.09 0,538.23 217.48,934.42 646.55,1191.67 255.98,148.5 884.13,262.86 1883.04,339.01 v 485.97 h -6376.44 v -485.97 c 685.05,-104.53 1255.45,-391.27 1694.35,-853.36 444.66,-468.12 994.69,-1430.93 1641.25,-2889.81 l 6854.12,-15110.65 h 270.59 l 6916.92,15530.02 c 661.16,1488.11 1201.78,2427.03 1626.49,2813.67 323.7,295.04 772.71,462.36 1360.68,510.13 v 485.97 h -9276.51 v -485.97 h 381.02 c 743.35,0 1269.08,-104.53 1568.61,-315.13 207.93,-147.66 309.37,-367.11 309.37,-648.52 0,-170.98 -24.73,-347.58 -81.91,-528.82 -19.53,-81.63 -159.74,-439.46 -425.7,-1064.1 l -1047.52,-2365.07 z m -452.95,-1029.4 -2862.14,-6460.88 -2930.56,6460.88 h 5792.69 z m 28671.8,-200.48 -724.67,6637.76 h -17000.57 v -485.97 h 632.78 c 555.37,0 1004.39,-100.59 1341.85,-295.6 246.71,-133.89 434.83,-357.84 564.92,-677.32 101.16,-223.95 154.82,-815.71 154.82,-1774.15 V 220823.8 c 0,-977.41 -53.67,-1587.44 -154.82,-1830.77 -106.21,-243.48 -313.86,-457.87 -627.02,-638.82 -314.42,-186.29 -739,-276.77 -1279.76,-276.77 h -632.78 v -486.25 h 10224.56 v 486.25 h -840.29 c -555.23,0 -1004.25,99.89 -1346.91,296.3 -246.14,133.33 -439.18,357.13 -584.45,676.48 -101.16,224.65 -154.54,815.14 -154.54,1773.59 v 12102.82 c 0,967.72 58.3,1587.3 169.72,1854.66 110.85,266.52 332.69,461.94 661.58,595.41 235.75,81.63 805.59,124.62 1703.49,124.62 h 1593.2 c 1013.66,0 1858.31,-176.88 2534.22,-528.96 674.93,-353.34 1264.3,-911.38 1756.45,-1674.26 493.13,-762.6 960.41,-1888.52 1399.88,-3376.34 h 608.34 z m 14050.49,1229.88 h -6713.35 l -835.23,1850.86 c -265.95,619.3 -396.33,1134.49 -396.33,1540.09 0,538.23 217.77,934.42 646.55,1191.67 256.12,148.5 884.13,262.86 1883.04,339.01 v 485.97 h -6376.16 v -485.97 c 684.77,-104.53 1255.17,-391.27 1694.07,-853.36 444.66,-468.12 994.98,-1430.93 1641.25,-2889.81 l 6854.12,-15110.65 h 270.73 l 6916.78,15530.02 c 661.16,1488.11 1202.63,2427.03 1626.49,2813.67 323.98,295.04 772.71,462.36 1361.52,510.13 v 485.97 h -9277.22 v -485.97 h 381.16 c 743.35,0 1268.8,-104.53 1568.89,-315.13 207.65,-147.66 308.8,-367.11 308.8,-648.52 0,-170.98 -24.45,-347.58 -81.91,-528.82 -19.25,-81.63 -159.46,-439.46 -425.7,-1064.1 l -1047.52,-2365.07 z m -452.95,-1029.4 -2862.14,-6460.88 -2930.56,6460.88 h 5792.69 z m 28672.08,-200.48 -723.82,6637.76 h -17001.41 v -485.97 h 632.92 c 555.23,0 1004.25,-100.59 1342,-295.6 246.43,-133.89 434.55,-357.84 564.64,-677.32 101.16,-223.95 154.82,-815.71 154.82,-1774.15 V 220823.8 c 0,-977.41 -53.67,-1587.44 -154.82,-1830.77 -106.21,-243.48 -313.86,-457.87 -627.02,-638.82 -313.86,-186.29 -739,-276.77 -1279.62,-276.77 h -632.92 v -486.25 h 10224.56 v 486.25 h -840.15 c -555.37,0 -1004.39,99.89 -1347.05,296.3 -245.86,133.33 -438.9,357.13 -584.45,676.48 -101.16,224.65 -153.98,815.14 -153.98,1773.59 v 12102.82 c 0,967.72 57.74,1587.3 169.15,1854.66 110.85,266.52 332.69,461.94 661.72,595.41 235.61,81.63 805.45,124.62 1703.63,124.62 h 1592.92 c 1013.66,0 1858.31,-176.88 2534.22,-528.96 674.93,-353.34 1264.86,-911.38 1756.59,-1674.26 492.99,-762.6 960.27,-1888.52 1400.58,-3376.34 h 607.49 z M 104085.41,135585.76 c 0,2513.57 4706.11,15605.05 5521.26,21154.83 2443.18,17385.52 9050.18,26811.1 -1900.6,33513.49 -9231.98,5759.82 -28599.02,6388.24 -28146.35,-6912.57 271.71,-5760.1 5611.17,-12567.01 7239.78,-19374.63 -7512.05,837.62 -5339.18,418.81 -9140.66,8064.19 -17376.25,34665.82 14842.45,46394.79 34753.2,30475.88 13122.24,-10577.76 9321.33,-25448.87 5610.89,-42833.55 -4162.69,-20108.85 1447.65,-11625.14 1447.65,-24087.91 0,-9007.05 -6244.24,-418.95 -7692.45,-13300.25 h -3800.91 c -905.06,3665.06 -3891.81,10891.63 -3891.81,13300.25 v 0.28 z m 17285.21,60638.03 c 9956.08,0 20816.1,-1361.66 28237.11,-4398.29 12217.75,-5131.81 8235.74,-10787.38 16019.22,-16442.81 180.67,8797.43 2986.05,15185.39 13484.44,15185.39 h 55748.43 c 0,-25448.03 1448.21,-7854.16 -15022.7,-26914.78 -13122.81,-15081.15 -24797.41,-18537.01 -34933.88,313.86 13304.04,0 19638.76,3560.53 24978.64,11415.53 -45070.07,0 -37377.34,7435.77 -40273.2,-28590.73 -633.49,-8482.86 -1900.74,-16128.25 -1991.22,-22621.58 h -3891.39 c -7601.97,32151.4 -1900.6,9635.19 -1900.6,36027.34 0,4398.57 -633.91,2199.29 -1900.32,7644.96 -90.76,-104.53 -5792.13,-27019.87 -29503.8,-35503.3 -17647.68,-6388.24 -6334.72,23982.96 8598.07,22726.39 452.11,-104.81 1538.12,-313.86 1900.32,-313.86 5429.8,-733.1 9683.52,8272.97 12670.14,11624.86 2986.61,3246.53 -270.87,1675.39 4344.34,3351.33 -6244.1,9215.68 -23621.47,17803.91 -36563.32,20840.26 v 5655.71 z M 916.73,167915.17 l -1.55,5.06 C 7893.08,110740.45 60832.34,36488.03 153790.64,0.01 c 92958.59,36488.3 145897.85,110740.73 152875.6,167920.22 l -1.97,-5.06 C 303059.63,146664.67 288981.46,124904.73 267586.11,103837.29 240199.41,76868.56 200661.83,50842.96 155869.52,28461.2 l -2079.17,-1039.51 -2079.17,1039.51 C 106918.58,50842.4 67381.57,76868 39994.31,103837.29 18599.38,124904.73 4521.08,146664.38 916.15,167915.17 h 0.56 z"
   id="path2"
   style="fill:#999999;fill-opacity:1" />
  <path
   class="fil2"
   d="m 72607.95,104777.05 316.81,335.78 c -224.93,249.8 -367.11,514.63 -423.17,791.82 -52.83,280.28 -30.35,600.89 67.58,969.12 38.5,113.38 309.65,803.34 817.39,2067.22 l 6092.65,14674 -352.5,332.55 -11283.89,-5470.4 4453.09,11913.44 -342.52,323.14 -14408.74,-6618.23 c -1459.73,-670.58 -2384.32,-1043.45 -2773.2,-1106.11 -388.89,-62.52 -806.15,82.19 -1255.17,430.89 l -316.81,-335.78 5674.54,-5352.81 316.81,336.06 c -445.51,444.94 -682.8,799.97 -713.29,1071.4 -33.3,268.06 39.9,497.77 216.92,685.33 232.94,246.99 885.25,621.54 1956.23,1123.67 l 8561.68,3936.35 -2656.59,-6979.58 -1796.91,-862.77 c -1014.22,-481.33 -1723.01,-777.49 -2123.7,-878.93 -400.41,-101.16 -759.09,-111.69 -1072.25,-21.5 -310.21,86.97 -669.17,319.9 -1074.21,701.91 l -317.09,-335.78 6290.6,-5933.75 316.81,335.78 c -434.97,423.03 -720.17,760.49 -852.23,1009.87 -94.55,170.28 -125.6,348.71 -101.72,525.31 23.32,183.06 102,339.29 229.29,474.31 143.02,151.31 716.52,475.85 1730.18,969.83 l 8230.96,3955.46 -3163.07,-7622.06 c -325.8,-794.49 -563.38,-1323.31 -715.53,-1590.39 -149.34,-263.71 -312.74,-482.88 -483.44,-664.11 -251.62,-266.8 -536.26,-390.57 -863.61,-374.28 -320.61,16.16 -744.19,259.91 -1263.6,725.23 l -316.81,-336.06 3398.54,-3205.92 z m 9783.98,-7815.94 c 2205.89,-1832.32 4561.41,-2596.04 7064.86,-2285.27 2506.41,314.28 4570.96,1524.07 6201.81,3639.49 1390.47,1803.52 2084.64,3801.05 2085.35,5989.81 -0.28,2898.95 -1277.09,5335.53 -3837.44,7309.6 -2567.24,1979.27 -5219.2,2640.44 -7959.24,1985.88 -2166.83,-519.55 -3974.71,-1715.29 -5426,-3597.76 -1630.85,-2115.69 -2267.57,-4431.59 -1912.4,-6952.05 352.22,-2524.11 1614.83,-4549.6 3783.07,-6089.7 z m 639.67,570.12 c -1308.84,1009.03 -1790.59,2438.27 -1449.89,4296.58 284.64,1518.31 1216.67,3298.23 2792.17,5342.13 1871.52,2427.31 3686.83,3892.09 5439.49,4393.1 1223.56,348.71 2371.53,109.73 3447.15,-719.75 724.39,-558.18 1194.9,-1201.22 1410.7,-1922.23 271.29,-923.89 202.45,-2013.7 -210.88,-3261.7 -413.33,-1248 -1231.01,-2664.32 -2447.12,-4241.78 -1451.16,-1882.47 -2713.21,-3156.33 -3783.63,-3817.49 -1072.81,-665.24 -2029.85,-979.38 -2870.28,-942.85 -840.99,36.67 -1617.92,326.79 -2327.7,874.01 z m 20121.92,-3441.81 2941.23,4141.75 c 561.13,790.14 965.61,1258.26 1209.37,1390.18 242.77,138.67 531.49,177.72 861.79,126.87 333.95,-53.95 836.08,-316.25 1507.92,-793.51 l 267.36,376.52 -7508.4,5332.01 -267.36,-376.52 c 679.29,-482.31 1096.13,-872.61 1246.88,-1168.49 154.54,-298.69 206.53,-585.3 160.87,-852.94 -44.82,-273.54 -350.67,-806.01 -911.66,-1595.87 L 95851.09,91078.9 c -563.8,-793.65 -965.61,-1257.98 -1209.23,-1390.47 -242.77,-138.39 -531.63,-177.72 -861.93,-126.3 -333.81,53.67 -836.08,315.97 -1507.92,792.95 l -267.22,-376.52 6821.67,-4844.36 c 1775.56,-1260.93 3157.73,-2059.36 4156.64,-2396.54 996.1,-340.7 1990.51,-363.74 2982.68,-69.26 989.78,291.24 1798.6,883.14 2430.4,1772.75 768.08,1081.66 1013.94,2256.47 738.43,3518.24 -178.57,804.47 -637.56,1635.77 -1377.68,2494.18 l 7049.27,2474.23 c 918.83,308.24 1534.05,471.08 1842.29,490.6 452.67,11.8 886.09,-112.68 1293.1,-368.23 l 282.95,398.72 -4621.26,3281.79 -9486.41,-3325.48 -963.36,684.2 z m -5096.27,-7176.13 4545.67,6400.89 616.35,-437.78 c 1004.11,-712.86 1691.82,-1340.17 2061.74,-1874.75 367.25,-538.79 522.5,-1148.82 468.41,-1826.7 -53.95,-678.16 -352.92,-1404.23 -897.89,-2171.75 -791.82,-1114.96 -1638.58,-1751.81 -2540.41,-1911.42 -901.41,-159.46 -1931.93,172.53 -3094.65,998.35 l -1159.21,823.15 z m 31429.97,-7512.05 2687.78,5740.71 -13633.92,8269.6 -239.54,-394.65 506.9,-307.4 c 445.22,-270.03 756,-570.12 930.63,-892.98 131.78,-228.3 172.39,-501.98 119.42,-824.56 -28.94,-230.97 -277.47,-737.03 -749.39,-1515.08 l -6156.57,-10150.1 c -481.47,-793.51 -824.42,-1263.18 -1025.46,-1411.4 -204.84,-145.83 -477.12,-218.89 -817.95,-213.41 -343.23,1.69 -728.46,134.73 -1162.16,397.6 l -506.9,307.54 -239.54,-394.93 8198.79,-4972.77 239.54,394.65 -673.53,408.56 c -445.22,270.17 -756,569.84 -934.56,895.23 -131.36,228.02 -175.9,504.09 -135.01,833.83 29.5,231.25 277.76,737.03 749.95,1515.08 l 5959.32,9824.86 c 476.55,785.78 828.07,1260.93 1048.64,1423.76 220.57,162.83 494.96,213.41 824,162.27 229.57,-49.31 707.53,-291.52 1427.56,-728.32 l 1277.09,-774.68 c 813.32,-493.41 1403.67,-1047.52 1772.05,-1662.46 368.23,-615.22 565.63,-1354.64 584.87,-2213.62 18.97,-858.84 -159.46,-2000.07 -539.78,-3421.44 l 487.79,-295.88 z m 4263,4499.03 -221.14,-405.75 520.95,-283.8 c 457.31,-248.81 771.87,-513.36 934.14,-792.52 165.08,-275.37 239.26,-574.06 218.19,-886.94 -21.21,-199.92 -254.15,-712.3 -702.47,-1535.45 l -5679.6,-10424.35 c -444.1,-815.14 -764.99,-1299.99 -959.01,-1457.62 -197.96,-154.82 -466.3,-240.67 -807.42,-251.06 -342.66,-14.05 -733.66,100.87 -1178.88,343.51 l -520.95,283.8 -220.86,-405.61 7068.66,-3851.35 c 1888.66,-1028.83 3548.31,-1598.11 4976.71,-1711.07 1745.49,-136.42 3330.96,237.29 4751.78,1112.85 1422.92,879.77 2571.03,2125.95 3448.28,3736.43 604.26,1109.06 984.3,2232.3 1137.86,3365.67 151.17,1128.87 112.39,2155.73 -118.86,3075.41 -237.01,918.27 -626.46,1764.46 -1164.41,2537.31 -542.02,774.68 -1292.54,1554.7 -2251.55,2340.34 -423.59,348.99 -1144.88,804.19 -2162.76,1358.57 z m -2124.69,-18208.25 6721.5,12336.89 c 355.17,652.03 605.67,1036 749.53,1148.54 139.65,114.64 307.96,167.47 498.33,166.91 273.26,0.28 608.06,-104.81 1005.65,-321.17 1299.99,-708.51 2053.6,-1691.12 2254.64,-2950.37 281.83,-1705.73 -262.72,-3821.85 -1633.94,-6338.79 -1106.67,-2031.26 -2306.48,-3476.51 -3607.03,-4340.27 -1022.79,-674.93 -2025.5,-963.65 -3007.27,-872.47 -692.77,62.8 -1685.64,454.36 -2981.42,1170.73 z m 41975.28,7090.71 -2721.5,4889.46 c -451.55,811.07 -689.68,1341.57 -714.97,1592.07 -21.21,252.19 49.73,525.02 222.96,818.52 171.4,297.28 477.68,566.47 912.79,808.54 l 518.42,288.43 -224.37,403.5 -8189.37,-4557.89 224.65,-403.36 518.14,288.43 c 455.2,253.03 869.37,374.56 1236.48,366.69 263.43,1.55 521.09,-98.49 775.52,-304.17 186.44,-139.51 503.25,-605.95 945.8,-1401 l 5773.3,-10372.93 c 451.55,-811.07 689.82,-1341.57 718.91,-1589.69 25.29,-249.94 -45.66,-522.78 -219.17,-816.13 -171.12,-297.57 -477.4,-566.61 -920.8,-813.32 l -518.14,-288.43 224.51,-403.5 8189.37,4558.18 -224.79,403.36 -518.42,-288.43 c -450.98,-251.06 -860.94,-370.48 -1228.48,-362.47 -259.35,0.84 -520.81,98.77 -783.25,299.81 -186.72,139.93 -503.25,606.09 -945.66,1401.14 l -2483.65,4462.36 5577.74,3104.63 2483.93,-4462.36 c 451.41,-811.07 689.82,-1341.57 718.91,-1589.54 25.01,-250.08 -45.94,-522.78 -227.18,-820.62 -175.2,-299.53 -481.47,-568.72 -920.37,-813.04 l -510.41,-284.08 224.65,-403.36 8188.81,4557.75 -224.65,403.5 -510.27,-283.94 c -458.71,-255.42 -872.89,-376.94 -1232.27,-364.58 -263.43,-1.4 -525.31,96.24 -787.33,297.57 -186.72,139.65 -503.25,605.81 -945.8,1401.14 l -5773.44,10372.78 c -451.27,810.93 -689.68,1341.43 -718.77,1589.54 -25.43,250.22 45.66,522.78 227.04,820.9 174.91,299.53 481.33,568.44 920.8,812.9 l 510.13,284.08 -224.65,403.5 -8188.81,-4558.03 224.37,-403.5 510.41,284.08 c 458.71,255.56 872.89,377.08 1232.41,364.72 263.14,1.4 525.31,-96.52 787.33,-297.85 186.44,-139.51 502.97,-605.95 945.8,-1401 l 2721.22,-4889.74 -5577.88,-3104.63 z m 20102.53,15752.29 -5348.17,-3326.05 -1592.92,1078.43 c -522.21,368.23 -884.13,718.77 -1087.42,1045.55 -270.03,434.55 -295.6,861.37 -82.47,1281.58 129.54,245.86 571.95,648.94 1329.35,1205.29 l -243.62,392.26 -5078.98,-3158.3 243.9,-392.12 c 598.78,254.86 1195.46,306.28 1777.53,150.89 587.97,-156.65 1509.46,-660.74 2756.06,-1516.91 l 13036.54,-8788.86 215.38,133.89 -2277.68,15948.55 c -219.45,1527.17 -259.91,2552.49 -115.2,3074.14 109.44,398.72 383.27,755.43 828.35,1085.73 l -244.04,392.26 -7389.54,-4595.55 243.9,-392.12 303.89,188.82 c 591.9,368.37 1063.82,544.27 1407.32,523.2 239.26,-16.3 430.05,-142.74 571.11,-369.92 86.12,-138.11 155.39,-292.65 199.92,-467.28 25.29,-75.02 93.29,-432.58 195.01,-1067.61 l 351.8,-2425.9 z m 154.82,-1055.25 959.71,-6627.51 -5573.38,3758.34 4613.67,2869.16 z m 21884.55,14605.44 -4201.18,4746.86 -13004.51,-9227.62 266.94,-376.52 483.58,343.23 c 424.57,301.22 823.29,467.56 1189.14,499.45 261.74,30.21 528.82,-41.31 804.04,-218.05 200.48,-118.3 566.33,-547.36 1092.62,-1289.59 l 6869.58,-9681.84 c 537.11,-756.84 832,-1258.26 888.06,-1501.88 52.26,-245.58 11.52,-524.46 -128.97,-835.23 -137.82,-314.28 -413.05,-615.22 -826.66,-908.57 l -483.44,-342.94 267.22,-376.8 7820.58,5548.94 -267.22,376.8 -642.48,-456.04 c -424.57,-301.36 -823.15,-467.28 -1192.79,-501.84 -261.46,-30.35 -532.61,38.5 -818.94,207.37 -200.48,118.44 -566.05,547.5 -1092.34,1289.73 l -6649.56,9371.77 c -531.91,749.39 -828.35,1260.65 -890.03,1527.87 -61.82,266.8 0.56,539.07 178.29,820.48 136.42,191.07 548.63,533.45 1235.36,1020.83 l 1218.5,864.6 c 775.67,550.31 1518.74,872.04 2229.35,965.89 710.62,93.43 1468.02,-18.97 2263.63,-342.66 795.9,-323.7 1772.47,-940.89 2925.64,-1854.52 l 465.6,330.3 z m 9164.26,8667.05 -4931.33,-3917.52 -1705.87,888.34 c -561.27,305.71 -960.84,612.69 -1200.38,914.05 -318.22,400.55 -392.54,821.47 -229.15,1263.74 100.59,258.79 493.98,710.34 1182.53,1350 l -287.31,361.49 -4682.79,-3720.41 287.17,-361.35 c 565.49,322.01 1152.61,441.29 1748.58,353.9 602.02,-88.37 1575.21,-483.44 2912.15,-1190.82 l 13958.88,-7234.86 198.52,157.91 -4093,15581.73 c -393.24,1491.9 -550.88,2505.7 -467,3040.56 62.94,408.7 293.91,794.49 698.25,1173.82 l -287.45,361.35 -6813.38,-5413.08 287.31,-361.49 280,222.54 c 545.96,433.7 994.41,662.85 1337.92,681.25 239.82,11.24 443.96,-92.73 610.3,-302.06 101.16,-127.29 187.84,-272.7 252.19,-441.01 33.58,-71.79 142.18,-419.23 315.97,-1038.53 l 627.87,-2369.57 z m 274.95,-1030.38 1713.88,-6473.38 -5967.75,3093.95 z m 19779.39,17428.37 -4753.6,4193.17 -11769.01,-10759.56 311.61,-340.84 437.78,400.13 c 384.25,351.23 759.37,565.49 1118.19,642.2 256.12,62.24 530.22,24.16 825.12,-117.17 213.41,-92.59 629.13,-473.6 1243.23,-1145.16 l 8010.1,-8761.6 c 626.18,-685.05 980.5,-1146.29 1066.21,-1380.91 82.33,-237.57 76.01,-519.26 -25.01,-844.79 -98.21,-328.9 -334.09,-661.44 -708.37,-1003.55 l -437.64,-400.13 311.61,-340.7 7077.23,6470.15 -311.61,340.84 -581.36,-531.35 c -384.11,-351.52 -759.23,-565.49 -1121.7,-645.43 -255.84,-61.96 -533.31,-27.26 -838.33,104.95 -213.69,93.01 -629.27,473.88 -1243.09,1145.44 l -7753.42,8480.62 c -620.14,678.44 -977.41,1149.24 -1071.4,1407.04 -94.69,257.1 -66.03,534.86 75.59,835.94 111.97,206.53 478.8,597.1 1100.35,1165.54 l 1102.45,1007.9 c 701.91,641.63 1399.6,1052.86 2093.5,1233.25 693.76,180.39 1459.17,161.99 2288.64,-61.11 829.76,-222.96 1874.75,-715.25 3131.88,-1479.82 l 421.06,384.95 z"
   id="path3" />
  <path
   class="fil2"
   d="m 87134.85,244777.4 -3183.87,3675.31 -348.99,-302.48 c 519.4,-1035.16 810.93,-1848.9 870.92,-2444.03 62.94,-598.22 -41.31,-1203.75 -306.7,-1817.14 -149.2,-339.01 -540.9,-785.92 -1177.48,-1337.64 l -1026.45,-889.04 -9106.8,10512.58 c -607.78,701.34 -949.6,1172.14 -1025.74,1411.68 -75.73,239.82 -58.59,524.18 47.77,844.09 106.78,326.09 351.52,652.03 734.92,984.3 l 444.66,385.23 -302.2,348.99 -7083.83,-6136.62 302.2,-348.99 448.6,388.32 c 390.15,337.89 767.24,538.93 1128.3,606.09 254.15,52.26 530.5,10.12 828.07,-133.33 211.3,-98.21 616.63,-490.18 1212.32,-1177.9 l 9107.08,-10512.72 -985.7,-853.64 c -910.26,-788.73 -1739.73,-1165.82 -2488.56,-1137.72 -1046.96,39.9 -2076.64,495.52 -3099.15,1364.61 l -390.01,-338.03 3183.87,-3675.31 12216.76,10583.38 z m 785.64,12762.86 -3039.16,4070.52 c -579.68,776.37 -900.99,1304.9 -952.13,1577.46 -57.18,273.96 -6.04,560.43 144.15,859.12 153.7,301.22 557.48,698.82 1217.8,1191.95 l -276.21,369.92 -7379.15,-5509.74 276.35,-369.78 c 667.49,498.33 1166.94,775.24 1494.99,827.79 331.71,55.49 620.14,17 860.8,-108.46 246.99,-126.73 659.48,-581.08 1239.29,-1357.45 l 7037.61,-9425.3 c 582.49,-779.88 900.85,-1304.9 951.98,-1577.46 57.32,-273.68 5.76,-560.43 -144.29,-859.12 -153.56,-301.36 -557.2,-698.82 -1217.52,-1191.67 l 276.35,-370.2 6704.07,5005.93 c 1745.21,1302.94 2929.15,2373.36 3556.74,3220.68 630.11,843.38 957.04,1782.58 981.21,2817.46 26.69,1031.36 -288.43,1982.93 -941.31,2857.08 -793.79,1062.97 -1836.25,1657.54 -3121.77,1782.72 -820.34,76.71 -1752.38,-105.09 -2796.53,-545.96 l -191.49,7468.36 c -11.24,969.12 22.34,1604.44 98.21,1904.11 127.85,434.55 379.19,808.54 747.57,1117.77 l -292.37,391.56 -4542.16,-3391.24 253.87,-10048.95 -946.93,-707.1 z m 5265.98,-7052.5 -4697.26,6290.74 605.81,452.39 c 986.83,736.75 1794.81,1198.55 2417.19,1386.67 625.34,184.19 1253.77,144.85 1882.47,-114.78 628.71,-259.35 1227.91,-766.67 1791.43,-1521.41 817.81,-1095.57 1164.41,-2096.87 1039.23,-3003.89 -124.76,-907.03 -757.12,-1785.95 -1899.75,-2639.31 z m 10270.65,6346.52 7739.23,5139.82 -255.28,384.67 -388.61,-258.23 c -584.31,-388.04 -1024.62,-593.16 -1325.84,-613.82 -298.83,-24.73 -566.19,42.29 -799.41,197.11 -237.29,152.44 -640.51,661.72 -1214.15,1525.62 l -4874.15,7339.53 c -891.85,1342.56 -1378.66,2296.37 -1466.61,2863.12 -86.97,572.65 6.88,1151.2 278.04,1749.99 273.68,594.57 766.39,1128.59 1471.81,1596.99 811.07,538.79 1621.58,815.99 2433.91,828.35 812.33,12.36 1571.7,-206.53 2280.63,-659.76 708.51,-453.23 1593.2,-1474.34 2650.13,-3066.13 l 4060.27,-6113.86 c 448.32,-675.21 699.94,-1209.23 750.8,-1588.42 53.11,-383.13 8.85,-700.78 -131.22,-956.62 -219.17,-390.15 -629.13,-787.61 -1236.48,-1190.68 l 255.56,-384.81 5182.39,3441.53 -255.56,384.53 -309.37,-205.26 c -418.81,-278.32 -823.43,-421.62 -1215.27,-437.5 -391.84,-15.45 -765.69,105.65 -1117.91,366.27 -252.47,175.2 -584.45,568.72 -995.26,1187.31 l -3782.09,5694.91 c -1169.61,1761.51 -2130.45,2954.86 -2879.14,3582.87 -754.87,628.99 -1792.7,972.5 -3125.98,1032.77 -1337.5,57.46 -2777.42,-425.7 -4331.28,-1457.62 -1297.46,-861.65 -2181.58,-1698.99 -2656.59,-2514.13 -652.31,-1112.99 -934.28,-2169.64 -839.31,-3172.06 92.3,-998.21 551.3,-2123.14 1377.82,-3367.49 l 4876.53,-7343.46 c 578.55,-871.2 887.78,-1443.01 933.72,-1716.97 42.29,-276.35 -7.17,-553.83 -159.6,-839.87 -155.1,-282.11 -548.63,-630.54 -1187.17,-1043.87 l 255.42,-384.81 z m 26338.62,16342.78 -2993.22,5205.43 -465.03,-281.41 c 558.04,-1419.27 645.71,-2779.53 259.63,-4082.18 -390.01,-1305.61 -1082.5,-2259.56 -2081.55,-2864.66 -774.68,-468.83 -1511.01,-634.19 -2211.09,-492.01 -701.63,136.14 -1214.85,476.69 -1538.55,1010.99 -206.24,340.98 -307.68,692.21 -310.77,1055.81 3.37,483.72 142.46,1049.49 419.23,1693.51 206.24,463.63 757.68,1406.2 1658.81,2819.99 1270.06,1975.76 1979.56,3548.59 2130.87,4714.83 147.38,1163.57 -86.97,2250.01 -701.34,3264.51 -778.48,1285.94 -1950.33,2084.78 -3513.89,2402.72 -1563.69,318.22 -3119.1,11.52 -4664.39,-924.03 -484.42,-293.21 -914.75,-622.67 -1285.8,-979.8 -375.12,-359.24 -804.61,-873.73 -1288.61,-1542.62 -272.84,-371.61 -526.71,-625.62 -763.02,-768.64 -197.11,-119.7 -449.3,-166.34 -761.48,-149.06 -314.57,20.93 -633.63,145.41 -959.01,377.37 l -395.07,-239.26 3517.68,-5809.41 395.21,239.26 c -654.28,1832.04 -766.81,3468.37 -336.06,4899.01 434.41,1432.89 1196.58,2481.82 2296.37,3147.9 848.3,513.36 1666.82,691.65 2449.23,535.42 782.69,-155.95 1358.01,-537.95 1730.6,-1153.73 218.19,-359.94 335.08,-771.17 347.72,-1229.04 12.64,-458.43 -83.17,-955.36 -290.68,-1504.55 -209.62,-545.4 -665.1,-1366.3 -1366.86,-2462.99 -986.55,-1534.33 -1637.17,-2733.16 -1955.95,-3587.93 -314.57,-852.23 -455.06,-1677.77 -423.17,-2473.95 34.28,-799.27 270.31,-1556.39 704.29,-2273.05 743.35,-1227.63 1825.86,-2001.19 3251.16,-2318.29 1421.23,-319.62 2816.48,-62.24 4187.41,768.08 499.74,302.48 948.75,653.44 1344.52,1057.35 300.09,308.66 633.06,737.87 996.38,1291.56 363.6,553.26 647.11,889.32 852.23,1013.66 197.53,119.56 387.76,155.39 572.93,103.12 184.75,-51.98 469.11,-276.91 842.54,-675.21 l 348.71,211.3 z m 16233.9,9850.43 -2404.97,4226.19 -401.25,-228.3 c 307.4,-1116.78 434.41,-1971.83 376.94,-2567.24 -54.93,-599.06 -275.51,-1172.42 -655.54,-1722.17 -212.57,-303.33 -684.06,-665.24 -1416.04,-1081.94 l -1180.43,-671.56 -6878.71,12088.49 c -458.99,806.71 -702.33,1334.97 -730.15,1584.91 -27.4,250.08 44.54,525.59 211.58,818.52 168.31,298.83 472.2,570.83 913.07,821.75 l 511.4,290.96 -228.44,401.53 -8145.68,-4635.45 228.3,-401.25 515.61,293.49 c 448.6,255.14 857.71,378.63 1224.96,373.99 259.63,1.69 522.21,-93.71 786.2,-292.65 187.84,-137.4 508.73,-601.17 959.01,-1392.01 l 6878.57,-12088.35 -1133.22,-645.15 c -1046.82,-595.41 -1933.61,-803.34 -2662.78,-629.83 -1018.86,243.76 -1939.94,891.71 -2772.92,1943.59 l -448.88,-255.28 2405.11,-4226.05 14048.24,7993.81 z m 28942.67,-7366.78 3079.9,5529.69 -403.36,224.65 c -1355.62,-1214.43 -2771.38,-1923.64 -4244.03,-2129.74 -1472.51,-205.68 -2825.75,34.98 -4055.91,720.31 -1178.74,656.53 -1972.95,1528.85 -2387.97,2625.83 -415.3,1096.55 -455.76,2326.57 -123.49,3685.99 334.37,1363.35 846.19,2663.76 1538.12,3905.72 839.45,1507.22 1746.9,2727.4 2735.27,3664.35 988.51,936.95 2024.37,1447.93 3112.92,1541.5 1088.54,93.15 2173.72,-163.96 3261.42,-769.76 379.47,-211.3 745.32,-467 1094.59,-770.05 355.31,-302.06 696.57,-647.68 1026.02,-1033.05 l -1810.96,-3251.16 c -350.39,-628.99 -620.7,-1012.26 -807.42,-1151.77 -184.33,-135.86 -457.03,-206.81 -803.62,-205.68 -348.71,-2.53 -710.9,100.87 -1086.86,310.21 l -403.36,224.65 -224.79,-403.36 7642.15,-4256.39 224.65,403.36 c -559.59,363.6 -922.9,669.45 -1084.05,919.67 -157.07,248.39 -222.82,549.19 -186.72,902.39 10.4,186.15 179.55,573.64 503.53,1155 l 1810.96,3251.16 c -755.72,1006.92 -1612.73,1924.62 -2568.64,2757.61 -958.45,829.19 -2021.7,1571.7 -3188.5,2221.63 -1486.98,828.35 -2837.55,1316.14 -4049.59,1457.2 -1209.51,145.27 -2377.29,96.1 -3496.61,-145.97 -1119.59,-241.79 -2123,-657.23 -3006.7,-1248.29 -1134.35,-762.04 -2068.63,-1806.89 -2802.43,-3123.88 -1317.27,-2365.35 -1597.27,-4821.6 -843.38,-7376.48 757.4,-2556.98 2395.84,-4537.1 4915.59,-5940.49 783.25,-436.51 1516.21,-767.38 2213.62,-994.84 375.12,-126.16 1022.23,-258.23 1945.98,-394.93 920.51,-134.17 1450.74,-242.77 1588.98,-320.04 217.62,-120.97 375.4,-312.46 473.04,-574.2 97.92,-261.88 100.73,-657.37 8.29,-1186.19 z m 12842.66,4155.1 2691.01,4308.66 c 513.22,822.03 889.47,1312.91 1124.79,1459.59 234.34,152.58 520.11,208.63 852.8,177.3 336.34,-34 853.36,-266.24 1552.45,-702.61 l 244.6,391.56 -7811.02,4878.22 -244.46,-391.56 c 706.54,-441.43 1145.73,-806.43 1313.76,-1092.9 171.82,-289.14 240.67,-572.09 210.88,-841.56 -28.24,-276.21 -301.92,-825.68 -815.14,-1647.43 l -6231.03,-9976.87 c -515.61,-825.68 -889.04,-1312.91 -1124.79,-1459.59 -233.92,-152.58 -519.97,-208.63 -852.8,-177.02 -336.62,33.86 -853.36,265.67 -1552.17,702.05 l -244.46,-391.56 7096.47,-4431.87 c 1846.93,-1153.73 3274.34,-1868.71 4291.24,-2146.18 1014.64,-281.41 2008.5,-245.3 2981.84,107.48 970.67,349.27 1742.96,987.81 2321.1,1913.52 702.61,1125.07 878.37,2312.38 528.82,3555.75 -226.05,792.52 -733.52,1595.02 -1523.09,2408.2 l 6890.23,2887.14 c 899.02,362.19 1503.56,560.99 1810.12,598.92 451.41,38.78 891.15,-59.85 1312.63,-291.24 l 259.07,415.02 -4807.69,3002.35 -9272.72,-3881.28 -1002.42,625.9 z m -4662.28,-7465.27 4158.75,6658.98 641.35,-400.41 c 1044.43,-652.31 1767.97,-1237.89 2168.8,-1749.71 398.44,-515.89 589.79,-1115.66 576.02,-1795.51 -13.63,-680.41 -269.19,-1422.64 -768.08,-2221.63 -724.39,-1159.63 -1531.8,-1845.52 -2422.53,-2058.09 -890.59,-212.57 -1938.95,58.02 -3148.46,813.46 l -1205.86,752.91 z m 18063.41,-13080.66 c 2320.11,-1685.64 4720.16,-2295.24 7198.05,-1823.05 2480.84,475.99 4462.64,1817 5953.14,4033.57 1270.91,1889.92 1834.14,3928.06 1693.09,6112.46 -188.12,2892.62 -1620.17,5241.54 -4302.9,7045.33 -2690.17,1809 -5379.36,2296.93 -8071.22,1466.33 -2128.48,-658.63 -3855.14,-1969.02 -5181.4,-3941.55 -1490.64,-2216.85 -1975.76,-4569.27 -1458.46,-7061.49 515.05,-2495.73 1906.08,-4435.1 4169.71,-5831.61 z m 601.45,610.16 c -1371.5,922.2 -1944.85,2317.3 -1725.12,4193.73 185.59,1533.49 1000.17,3370.3 2440.51,5511.85 1710.23,2543.64 3426.92,4122.5 5143.61,4736.04 1198.13,427.38 2359.03,263.14 3486.35,-494.82 758.67,-510.13 1269.92,-1121.42 1532.08,-1826.84 330.58,-904.36 332.41,-1996.7 1.12,-3268.58 -331.71,-1272.17 -1056.09,-2738.36 -2167.4,-4391.41 -1326.4,-1972.39 -2503.17,-3325.48 -3528.5,-4054.79 -1027.71,-732.96 -1962.13,-1108.64 -2803.13,-1126.48 -841.84,-17.84 -1635.91,221.42 -2379.54,721.29 z m 7914.15,-6188.04 7378.02,-5645.74 280.85,366.55 -370.48,283.52 c -557.2,426.26 -894.38,775.81 -1011.98,1053.84 -120.54,274.81 -144.15,549.47 -73.76,820.48 67.16,273.82 417.41,820.9 1047.52,1644.2 l 5354.21,6997 c 979.66,1280.18 1723.01,2050.79 2230.2,2318.57 513.08,268.48 1090.93,367.95 1744.93,306.42 651.47,-65.19 1316.99,-357.56 1989.39,-872.32 773.14,-591.62 1298.86,-1267.53 1575.07,-2031.82 276.07,-764.29 316.25,-1553.3 118.3,-2371.25 -198.1,-817.25 -875.98,-1986.16 -2037.16,-3503.63 l -4459.83,-5828.38 c -492.57,-643.46 -915.88,-1055.53 -1257.7,-1226.79 -345.05,-174.91 -659.76,-236.31 -947.35,-187.28 -440.03,80.22 -949.32,338.73 -1528.29,781.57 l -280.57,-366.69 4940.46,-3780.26 280.43,366.55 -294.76,225.49 c -399.28,305.57 -666.64,641.35 -809.1,1007.2 -142.18,365.14 -149.34,758.1 -17.56,1176.21 83.59,295.32 347.58,737.59 798.85,1327.24 l 4154.68,5429.24 c 1284.81,1679.32 2100.8,2975.94 2450.91,3888.16 349.27,918.55 336.34,2011.73 -40.46,3292.19 -380.88,1283.27 -1306.31,2487.58 -2787.81,3621.22 -1236.77,946.51 -2316.46,1510.03 -3241.61,1693.79 -1264.44,254.86 -2355.52,177.58 -3272.38,-238.28 -914.05,-412.21 -1828.24,-1212.18 -2736.11,-2398.65 l -5357.02,-7000.66 c -635.45,-830.6 -1075.76,-1308.84 -1319.8,-1441.46 -247.41,-129.82 -526.01,-173.23 -846.19,-122.37 -317.09,54.79 -774.68,313.58 -1373.33,782.97 z m 26106.52,-8272.69 3300.2,3754.13 c 648.8,737.59 1099.5,1161.46 1358.85,1270.91 255.7,112.82 550.03,125.46 883,37.65 326.51,-87.95 798.71,-400.69 1410.84,-938.92 l 305.01,346.88 -6875.9,6044.46 -304.73,-346.74 c 625.62,-550.31 999.89,-981.77 1116.5,-1295.07 122.51,-312.74 144.43,-603.42 68.56,-868.25 -72.64,-267.5 -435.11,-768.92 -1083.63,-1506.79 l -7730.66,-8793.5 c -648.38,-737.87 -1099.22,-1161.46 -1358.29,-1271.19 -255.98,-112.68 -546.94,-128.13 -876.4,-43.41 -326.51,87.95 -798.99,400.69 -1418,944.96 l -304.73,-346.88 5896.38,-5183.37 c 1941.62,-1707 3640.61,-2585.64 5090.79,-2636.92 1456.78,-50.58 2637.35,442.27 3549.29,1479.68 774.12,880.61 1162.73,1871.09 1165.25,2978.04 6.04,1104 -371.89,2189.73 -1130.55,3260.58 -501.98,724.67 -1524.78,1762.63 -3061.78,3113.76 z m -5829.22,-6630.6 5147.69,5855.35 c 232.94,-180.67 405.75,-320.47 517.86,-418.95 812.76,-714.69 1229.32,-1508.9 1243.65,-2377.43 14.05,-868.81 -422.46,-1810.96 -1313.19,-2824.06 -884.97,-1006.64 -1751.53,-1546.69 -2599.97,-1627.06 -848.16,-80.22 -1713.88,264.83 -2584.52,1030.24 l -411.51,361.91 z"
   id="path4" />
 </g></g></g></svg>
